<svg xmlns="http://www.w3.org/2000/svg" viewBox="3.55 83.69 36.04 36.04" width="64" height="64"><path fill="#34a13a" d="M26.72,106.6H21.64v-5.31H36.9l0,15.94-4.95,0,0-6a14,14,0,0,1-11.19,6h-.29A14.15,14.15,0,0,1,6.84,106.77c0-.1-.07-.19-.09-.29h0s0,0,0,0A13.84,13.84,0,0,1,6.42,105h0a8.23,8.23,0,0,1-.16-1.31,7.84,7.84,0,0,1,0-1.37c0-.07,0-.14,0-.2,0-.39,0-.77.1-1.16a13.88,13.88,0,0,1,.23-1.46,15.56,15.56,0,0,1,7.59-11.3,12.74,12.74,0,0,1,7.3-2c.57,0,1.14.06,1.71.13A16.05,16.05,0,0,1,36.38,98l-7.55,0a.3.3,0,0,1,0-.08c-2-5.06-4.06-5.57-5.37-6.33-4.5-2-9.81-.54-13.27,3.07h0a12.78,12.78,0,0,0-3.52,7.7s0,.08,0,.12a.56.56,0,0,1,0-.12,11.41,11.41,0,0,1,9.84-8.38,9.77,9.77,0,0,0-1,.63,7.35,7.35,0,0,0-3,3.54,8.62,8.62,0,0,0-.79,3.6,8.84,8.84,0,0,0,6.46,8.43,7.91,7.91,0,0,0,1.07.25,4.87,4.87,0,0,0,.55.06,9.1,9.1,0,0,0,.91,0,9,9,0,0,0,6.82-3.08,7.08,7.08,0,0,0,.66-.79Z"></path></svg>