<svg id="Laag_1" data-name="Laag 1" xmlns="http://www.w3.org/2000/svg" width="376.74" height="213.07" viewBox="0 0 376.74 213.07"><defs></defs><path id="Tagline" class="cls-1" d="M216.62,118.36v.88h-3.43v2.87h3.06V123h-3.06v2.94h3.43v.88h-4.56v-8.44Zm9.07,5v3.48h-1.13v-8.44h2.79a3.19,3.19,0,0,1,2.22.69,2.26,2.26,0,0,1,.77,1.7,2.56,2.56,0,0,1-.56,1.68,2.62,2.62,0,0,1-1.68.84l2.37,3.53h-1.42l-2.26-3.48Zm0-4.07v3.18h1.66a2,2,0,0,0,1.39-.42,1.49,1.49,0,0,0,.45-1.17c0-1.06-.61-1.6-1.84-1.6h-1.66Zm17.77-.2a2.3,2.3,0,0,1,.76,1.78,2.35,2.35,0,0,1-.74,1.78,3.09,3.09,0,0,1-2.24.7h-1.67v3.49h-1.13v-8.44h2.8a3.19,3.19,0,0,1,2.22.69Zm-3.89,3.39h1.67a2,2,0,0,0,1.38-.42,1.54,1.54,0,0,0,.46-1.18c0-1.06-.62-1.59-1.84-1.59h-1.67v3.18Zm21.63-1.83a1.14,1.14,0,0,0,.26.77,1.62,1.62,0,0,0,.67.45,7.36,7.36,0,0,0,.92.25l1,.25a4.88,4.88,0,0,1,.92.36,1.77,1.77,0,0,1,.67.66,2.17,2.17,0,0,1,.26,1.09,2.28,2.28,0,0,1-.77,1.71,2.89,2.89,0,0,1-2.08.73,3.5,3.5,0,0,1-2.13-.59,1.89,1.89,0,0,1-.83-1.6h1.21a1.32,1.32,0,0,0,.47.93A1.85,1.85,0,0,0,263,126a2,2,0,0,0,1.31-.41,1.24,1.24,0,0,0,.48-1,1.27,1.27,0,0,0-.26-.86,1.6,1.6,0,0,0-.67-.44A7.21,7.21,0,0,0,263,123c-.34-.07-.67-.15-1-.25a4.24,4.24,0,0,1-.91-.37,1.73,1.73,0,0,1-.67-.67,2.36,2.36,0,0,1,.51-2.83,3.11,3.11,0,0,1,2-.65,3.26,3.26,0,0,1,2,.57,2.21,2.21,0,0,1,.85,1.56h-1.26a1.24,1.24,0,0,0-.48-.85,1.75,1.75,0,0,0-1.15-.35,1.9,1.9,0,0,0-1.19.36,1.28,1.28,0,0,0-.46,1Zm16.91,6.27a4.31,4.31,0,0,1-3.12-1.22,4.39,4.39,0,0,1,0-6.17,4.61,4.61,0,0,1,6.24,0,4.42,4.42,0,0,1,0,6.18A4.32,4.32,0,0,1,278.11,126.88Zm2.31-1.9a3.64,3.64,0,0,0,0-4.81,3.42,3.42,0,0,0-4.64,0,3.61,3.61,0,0,0,0,4.81,3.14,3.14,0,0,0,2.32.92A3.08,3.08,0,0,0,280.42,125Zm10.06,1.82v-8.44h4.86v.89h-3.72v2.86h2.93V123h-2.93v3.81h-1.14Zm12.68-7.55v-.89h5.68v.89h-2.27v7.55h-1.13v-7.55Zm23.9-.89h1.2l-2.62,8.44h-1.26L322.44,120l-2.08,6.82h-1.25l-2.44-8.45h1.2l1.91,7.17,2.09-7.17h1.24l1.93,7.15Zm15.34,8.44-.67-1.85H337.9l-.67,1.85h-1.16l3.14-8.44h1.24l3.12,8.44Zm-4.18-2.73h3.18l-1.59-4.36Zm14.17-.75v3.48h-1.13v-8.44h2.8a3.19,3.19,0,0,1,2.22.69,2.22,2.22,0,0,1,.76,1.7,2.51,2.51,0,0,1-.56,1.68,2.57,2.57,0,0,1-1.68.84l2.38,3.53h-1.42l-2.26-3.48Zm0-4.07v3.18h1.67a2,2,0,0,0,1.38-.42,1.5,1.5,0,0,0,.46-1.17c0-1.06-.61-1.6-1.84-1.6h-1.67Zm17.32-.89v.87h-3.43v2.88h3.05V123h-3.05v3h3.43v.88h-4.56v-8.44Z"></path><path id="Solutions" class="cls-1" d="M212.9,101.09a1.86,1.86,0,0,0,.45,1.3,2.67,2.67,0,0,0,1.17.76,13.63,13.63,0,0,0,1.58.44c.58.12,1.16.26,1.75.42a7.38,7.38,0,0,1,1.58.61,2.91,2.91,0,0,1,1.17,1.11,3.55,3.55,0,0,1,.45,1.83,3.8,3.8,0,0,1-1.34,2.9,5.08,5.08,0,0,1-3.61,1.24,6.28,6.28,0,0,1-3.7-1A3.14,3.14,0,0,1,211,108h2.09a2.21,2.21,0,0,0,.81,1.57,3.26,3.26,0,0,0,2.14.59,3.38,3.38,0,0,0,2.27-.7,2.19,2.19,0,0,0,.38-3.07,2.67,2.67,0,0,0-1.16-.76,14.29,14.29,0,0,0-1.59-.42q-.87-.18-1.74-.42a7.74,7.74,0,0,1-1.59-.63,2.93,2.93,0,0,1-1.16-1.13,3.48,3.48,0,0,1-.45-1.87,3.56,3.56,0,0,1,1.34-2.91,5.39,5.39,0,0,1,3.52-1.1,5.66,5.66,0,0,1,3.46,1,3.67,3.67,0,0,1,1.47,2.64h-2.18a2.07,2.07,0,0,0-.83-1.44,3.19,3.19,0,0,0-2-.6,3.35,3.35,0,0,0-2.06.61A2.1,2.1,0,0,0,212.9,101.09Zm24.17,10.61a7.6,7.6,0,0,1-5.41-2.07,6.9,6.9,0,0,1-2.2-5.23,6.81,6.81,0,0,1,2.2-5.21,8.17,8.17,0,0,1,10.82,0,7.35,7.35,0,0,1,0,10.45A7.62,7.62,0,0,1,237.07,111.7Zm4-3.21a6.07,6.07,0,0,0,0-8.15,6.05,6.05,0,0,0-8.06,0,6,6,0,0,0,0,8.15,6,6,0,0,0,8.05,0ZM253,97.28h2v12.83h5.24v1.44H253Zm15.53,9.27V97.28h2v9.27a3.37,3.37,0,0,0,1,2.65,3.89,3.89,0,0,0,2.7.87,4,4,0,0,0,2.72-.87,3.33,3.33,0,0,0,1-2.65V97.28h2v9.27a4.69,4.69,0,0,1-1.61,3.83,6.93,6.93,0,0,1-8.14,0,4.69,4.69,0,0,1-1.6-3.83Zm19.67-7.76V97.28h9.86v1.51H294.1v12.76h-2V98.79Zm36.09,13a7.61,7.61,0,0,1-5.42-2.07,7.29,7.29,0,0,1,0-10.44,8.17,8.17,0,0,1,10.82,0,7.33,7.33,0,0,1,0,10.45,7.55,7.55,0,0,1-5.41,2.06Zm4-3.21a6.07,6.07,0,0,0,0-8.15,6.07,6.07,0,0,0-8.06,0,6,6,0,0,0,0,8.15,5.59,5.59,0,0,0,4,1.54,5.46,5.46,0,0,0,4-1.54Zm21.84-11.28h2v14.27h-2l-7.9-11.32v11.32h-2V97.28h2l7.9,11.33Zm-43.76,14.27V97.28h2v14.27Zm56-10.38a1.9,1.9,0,0,0,.45,1.3,2.67,2.67,0,0,0,1.16.76,14.33,14.33,0,0,0,1.59.43q.87.18,1.74.42a8.28,8.28,0,0,1,1.59.61A3,3,0,0,1,370,105.8a3.5,3.5,0,0,1,.46,1.84,3.86,3.86,0,0,1-1.34,2.9,5.11,5.11,0,0,1-3.61,1.23,6.35,6.35,0,0,1-3.7-1,3.17,3.17,0,0,1-1.43-2.71h2.1a2.17,2.17,0,0,0,.81,1.56,3.27,3.27,0,0,0,2.14.6,3.43,3.43,0,0,0,2.27-.7,2.2,2.2,0,0,0,.38-3.08,2.74,2.74,0,0,0-1.16-.75,11,11,0,0,0-1.59-.42q-.87-.18-1.74-.42a9.07,9.07,0,0,1-1.59-.63,3.14,3.14,0,0,1-1.16-1.13,3.5,3.5,0,0,1-.45-1.87,3.56,3.56,0,0,1,1.34-2.91,5.44,5.44,0,0,1,3.52-1.11,5.72,5.72,0,0,1,3.45,1,3.68,3.68,0,0,1,1.48,2.65H368a2.14,2.14,0,0,0-.83-1.45,3.13,3.13,0,0,0-2-.59,3.31,3.31,0,0,0-2.06.61,2.07,2.07,0,0,0-.79,1.78Z"></path><path id="Global_Shop" data-name="Global Shop" class="cls-1" d="M145.85,96.78a2.57,2.57,0,0,0-1.71.54,1.82,1.82,0,0,0-.66,1.49,2.13,2.13,0,0,0,.49,1.49,3.12,3.12,0,0,0,1.28.83,17.35,17.35,0,0,0,1.74.51,18.64,18.64,0,0,1,1.9.55,9.8,9.8,0,0,1,1.74.8,3.52,3.52,0,0,1,1.29,1.39,4.61,4.61,0,0,1,.48,2.22,4.83,4.83,0,0,1-1.7,3.7,6.5,6.5,0,0,1-4.54,1.55,7.25,7.25,0,0,1-4.57-1.34,4.46,4.46,0,0,1-1.75-3.76h3.74a2.3,2.3,0,0,0,2.62,2.3,2.72,2.72,0,0,0,1.89-.62,2.13,2.13,0,0,0,.7-1.67,1.87,1.87,0,0,0-.92-1.64,7,7,0,0,0-2.23-.9c-.88-.2-1.75-.44-2.63-.72a4.92,4.92,0,0,1-2.25-1.5,4.14,4.14,0,0,1-.92-2.81,4.7,4.7,0,0,1,1.72-3.81A6.74,6.74,0,0,1,146,94a7,7,0,0,1,4.34,1.24,4.76,4.76,0,0,1,1.8,3.77h-3.84a2.34,2.34,0,0,0-.75-1.59A2.38,2.38,0,0,0,145.85,96.78Zm12.84-3.63v6.73A4.58,4.58,0,0,1,163,97.61a5,5,0,0,1,3.86,1.56,6,6,0,0,1,1.5,4.34v8.16h-3.49V104a3.53,3.53,0,0,0-.82-2.49,3.37,3.37,0,0,0-4.5,0,3.45,3.45,0,0,0-.84,2.49v7.66h-3.51V93.15Zm14.44,16.75a7,7,0,0,1-2-5.18,6.82,6.82,0,0,1,2-5.16,7.57,7.57,0,0,1,10.14,0,7.53,7.53,0,0,1,0,10.34,7.06,7.06,0,0,1-5.1,2,6.89,6.89,0,0,1-5.05-2Zm5.06-1a3.41,3.41,0,0,0,2.53-1.09,5,5,0,0,0,0-6.15,3.39,3.39,0,0,0-2.53-1.07,3.3,3.3,0,0,0-2.51,1.07,5.16,5.16,0,0,0,0,6.16,3.33,3.33,0,0,0,2.49,1.08Zm-127.85.4A8.95,8.95,0,0,1,56.67,94a9,9,0,0,1,5,1.45,8,8,0,0,1,3.15,4.08H60.66a4.1,4.1,0,0,0-4-2.3,5,5,0,0,0-3.85,1.56,6.57,6.57,0,0,0,0,8.31,4.84,4.84,0,0,0,3.64,1.57,5,5,0,0,0,3.39-1.07,4.65,4.65,0,0,0,1.53-2.86H55.6V102h9.55v2.68a8.81,8.81,0,0,1-10.3,7,8.9,8.9,0,0,1-4.51-2.37Zm17.58,2.37V93.15h3.51v18.52Zm8.32-1.77a6.92,6.92,0,0,1-2-5.18,6.78,6.78,0,0,1,2-5.16,7.57,7.57,0,0,1,10.14,0,7.56,7.56,0,0,1,0,10.34,7.06,7.06,0,0,1-5.1,2,6.91,6.91,0,0,1-5.06-2Zm5.06-1a3.41,3.41,0,0,0,2.53-1.09,4.26,4.26,0,0,0,1.06-3.08,4.21,4.21,0,0,0-1-3.07,3.36,3.36,0,0,0-2.53-1.07,3.29,3.29,0,0,0-2.5,1.07,5.16,5.16,0,0,0,0,6.16,3.31,3.31,0,0,0,2.49,1.08ZM94.76,100a4.78,4.78,0,0,1,4.31-2.36,6.09,6.09,0,0,1,4.68,2,8.07,8.07,0,0,1,0,10.28,6,6,0,0,1-4.64,2,4.83,4.83,0,0,1-4.35-2.53v2.33H91.24V93.15h3.52Zm6.19,7.76a4.1,4.1,0,0,0,1.08-3,4,4,0,0,0-1.08-3,3.56,3.56,0,0,0-5-.07.3.3,0,0,0-.08.08,4.65,4.65,0,0,0,0,6,3.51,3.51,0,0,0,5,.11Zm9.28,2.14a8,8,0,0,1,0-10.26,6.09,6.09,0,0,1,4.69-2,4.83,4.83,0,0,1,4.34,2.35V97.81h3.49v13.86h-3.49v-2.32a4.91,4.91,0,0,1-4.37,2.52,6,6,0,0,1-4.64-2Zm7.91-2.13a4.61,4.61,0,0,0,0-6,3.57,3.57,0,0,0-5-.09l-.07.08a4,4,0,0,0-1.09,3,4.08,4.08,0,0,0,1.1,3,3.52,3.52,0,0,0,5,.14l.13-.13Zm7.35,3.94V93.15H129v18.52ZM191.64,100A4.78,4.78,0,0,1,196,97.6a6.13,6.13,0,0,1,4.69,2,8.1,8.1,0,0,1,0,10.28,6,6,0,0,1-4.65,2,4.83,4.83,0,0,1-4.35-2.53v8.94h-3.51V97.81h3.51Zm6.19,7.76a4.09,4.09,0,0,0,1.09-3,4,4,0,0,0-1.09-3,3.55,3.55,0,0,0-5-.07l-.09.09a4.68,4.68,0,0,0,0,6,3.53,3.53,0,0,0,5,.11l.12-.12Z"></path><path id="Brand_Mark" data-name="Brand Mark" class="cls-1" d="M26.72,106.6H21.64v-5.31H36.9l0,15.94-4.95,0,0-6a14,14,0,0,1-11.19,6h-.29A14.15,14.15,0,0,1,6.84,106.77c0-.1-.07-.19-.09-.29h0s0,0,0,0A13.84,13.84,0,0,1,6.42,105h0a8.23,8.23,0,0,1-.16-1.31,7.84,7.84,0,0,1,0-1.37c0-.07,0-.14,0-.2,0-.39,0-.77.1-1.16a13.88,13.88,0,0,1,.23-1.46,15.56,15.56,0,0,1,7.59-11.3,12.74,12.74,0,0,1,7.3-2c.57,0,1.14.06,1.71.13A16.05,16.05,0,0,1,36.38,98l-7.55,0a.3.3,0,0,1,0-.08c-2-5.06-4.06-5.57-5.37-6.33-4.5-2-9.81-.54-13.27,3.07h0a12.78,12.78,0,0,0-3.52,7.7s0,.08,0,.12a.56.56,0,0,1,0-.12,11.41,11.41,0,0,1,9.84-8.38,9.77,9.77,0,0,0-1,.63,7.35,7.35,0,0,0-3,3.54,8.62,8.62,0,0,0-.79,3.6,8.84,8.84,0,0,0,6.46,8.43,7.91,7.91,0,0,0,1.07.25,4.87,4.87,0,0,0,.55.06,9.1,9.1,0,0,0,.91,0,9,9,0,0,0,6.82-3.08,7.08,7.08,0,0,0,.66-.79Z"></path></svg>